HIERARCHY
ROOT Hips
{
	OFFSET 0.000000 0.000000 0.000000
	CHANNELS 6 Xposition Yposition Zposition Xrotation Yrotation Zrotation
	JOINT LeftUpLeg_virtual
	{
		OFFSET 0.000000 0.000000 0.000000
		CHANNELS 3 Xrotation Yrotation Zrotation
		JOINT LeftUpLeg
		{
			OFFSET 13.026900 -6.336304 -1.092800
			CHANNELS 3 Xrotation Yrotation Zrotation
			JOINT LeftLeg
			{
				OFFSET 0.524474 -46.096886 9.782700
				CHANNELS 3 Xrotation Yrotation Zrotation
				JOINT LeftFoot
				{
					OFFSET -0.524474 -53.427422 -12.948200
					CHANNELS 3 Xrotation Yrotation Zrotation
					JOINT LeftToeBase
					{
						OFFSET 0.192200 -14.009700 16.364100
						CHANNELS 3 Xrotation Yrotation Zrotation
						JOINT LeftToe_End
						{
							OFFSET -1.784700 -0.561700 9.474800
							CHANNELS 3 Xrotation Yrotation Zrotation
							End Site
							{
								OFFSET 0 0 0
							}
						}
					}
				}
			}
		}
	}
	JOINT RightUpLeg_virtual
	{
		OFFSET 0.000000 0.000000 0.000000
		CHANNELS 3 Xrotation Yrotation Zrotation
		JOINT RightUpLeg
		{
			OFFSET -12.883000 -6.336304 -1.092800
			CHANNELS 3 Xrotation Yrotation Zrotation
			JOINT RightLeg
			{
				OFFSET -0.524587 -46.096825 9.782800
				CHANNELS 3 Xrotation Yrotation Zrotation
				JOINT RightFoot
				{
					OFFSET 0.524587 -53.427383 -12.948300
					CHANNELS 3 Xrotation Yrotation Zrotation
					JOINT RightToeBase
					{
						OFFSET -0.192200 -14.009700 16.364100
						CHANNELS 3 Xrotation Yrotation Zrotation
						JOINT RightToe_End
						{
							OFFSET 1.784700 -0.561700 9.474800
							CHANNELS 3 Xrotation Yrotation Zrotation
							End Site
							{
								OFFSET 0 0 0
							}
						}
					}
				}
			}
		}
	}
	JOINT Spine_virtual
	{
		OFFSET 0.000000 0.000000 0.000000
		CHANNELS 3 Xrotation Yrotation Zrotation
		JOINT Spine
		{
			OFFSET 0.072000 7.257294 -0.789700
			CHANNELS 3 Xrotation Yrotation Zrotation
			JOINT Spine1
			{
				OFFSET 0.000000 12.508769 -0.658067
				CHANNELS 3 Xrotation Yrotation Zrotation
				JOINT Spine1_split
				{
					OFFSET 0.000000 12.508769 -0.658067
					CHANNELS 3 Xrotation Yrotation Zrotation
					JOINT Spine2
					{
						OFFSET 0.000000 12.508769 -0.658067
						CHANNELS 3 Xrotation Yrotation Zrotation
						JOINT Neck_virtual
						{
							OFFSET 0.000000 0.000000 0.000000
							CHANNELS 3 Xrotation Yrotation Zrotation
							JOINT Neck
							{
								OFFSET 0.000000 14.033295 7.520400
								CHANNELS 3 Xrotation Yrotation Zrotation
								JOINT Head
								{
									OFFSET 0.000000 8.198502 5.703100
									CHANNELS 3 Xrotation Yrotation Zrotation
									JOINT HeadTop_End
									{
										OFFSET 0.000000 17.760803 13.332701
										CHANNELS 3 Xrotation Yrotation Zrotation
										End Site
										{
											OFFSET 0 0 0
										}
									}
								}
							}
						}
						JOINT LeftShoulder_virtual
						{
							OFFSET 0.000000 0.000000 0.000000
							CHANNELS 3 Xrotation Yrotation Zrotation
							JOINT LeftShoulder
							{
								OFFSET 6.292450 5.785301 -0.669000
								CHANNELS 3 Xrotation Yrotation Zrotation
								JOINT LeftShoulder_split
								{
									OFFSET 6.292450 5.785301 -0.669000
									CHANNELS 3 Xrotation Yrotation Zrotation
									JOINT LeftArm
									{
										OFFSET 13.907140 -6.093903 1.965100
										CHANNELS 3 Xrotation Yrotation Zrotation
										JOINT LeftForeArm
										{
											OFFSET 34.140198 0.000000 0.000000
											CHANNELS 3 Xrotation Yrotation Zrotation
											JOINT LeftHand
											{
												OFFSET 40.960209 0.000000 0.000000
												CHANNELS 3 Xrotation Yrotation Zrotation
												End Site
												{
													OFFSET 0 0 0
												}
											}
										}
									}
								}
							}
						}
						JOINT RightShoulder_virtual
						{
							OFFSET 0.000000 0.000000 0.000000
							CHANNELS 3 Xrotation Yrotation Zrotation
							JOINT RightShoulder
							{
								OFFSET -6.292450 5.785301 -0.669000
								CHANNELS 3 Xrotation Yrotation Zrotation
								JOINT RightShoulder_split
								{
									OFFSET -6.292450 5.785301 -0.669000
									CHANNELS 3 Xrotation Yrotation Zrotation
									JOINT RightArm
									{
										OFFSET -13.907140 -6.093903 1.965100
										CHANNELS 3 Xrotation Yrotation Zrotation
										JOINT RightForeArm
										{
											OFFSET -34.140198 0.000000 0.000000
											CHANNELS 3 Xrotation Yrotation Zrotation
											JOINT RightHand
											{
												OFFSET -40.960209 0.000000 0.000000
												CHANNELS 3 Xrotation Yrotation Zrotation
												End Site
												{
													OFFSET 0 0 0
												}
											}
										}
									}
								}
							}
						}
					}
				}
			}
		}
	}
}
MOTION
Frames: 6
Frame Time: 0.03333333
-8.433170 108.891571 0.875160 0.000000 0.000000 0.000000 3.407759 29.509221 0.647881 -31.507577 -18.285902 1.093338 29.892825 14.572639 -6.748475 2.359984 -0.539103 -5.978928 1.442100 -1.278555 -0.311423 0.000000 0.000000 0.000000 4.354713 27.732861 0.348874 0.516240 -22.652524 -9.551564 26.343365 -7.923244 6.091027 -21.594108 -11.453776 0.356065 -3.305858 0.148108 0.468006 0.000000 0.000000 0.000000 4.642194 28.799670 -0.501790 3.698947 4.672689 -0.796791 0.450904 3.205027 0.508080 0.441470 0.732676 0.092085 0.000000 0.000000 0.000000 1.591277 2.812364 0.872099 -3.121317 11.910819 -6.867127 -6.256376 9.349148 10.022532 0.000000 0.000000 0.000000 0.433167 3.082175 0.907626 -0.033076 -2.031512 -3.187349 2.812435 -1.157087 -0.146776 -74.337894 -0.186116 -25.556396 1.322952 -65.438840 3.276291 0.000000 0.000000 0.000000 1.172448 3.054687 0.895772 4.222952 12.193615 8.157125 -5.265256 -0.455331 0.386213 14.573351 -6.139076 67.244012 16.940561 40.724409 -6.998330 0.000000 0.000000 0.000000 
-8.366736 109.086380 0.608253 0.000000 0.000000 0.000000 3.961979 26.630631 0.396371 -30.853747 -17.575844 2.502352 29.512062 15.394637 -6.721627 2.225970 -0.177711 -6.304112 1.590145 -1.293060 -0.383128 0.000000 0.000000 0.000000 5.003933 24.961211 0.118467 -0.610739 -21.108882 -9.370095 26.182263 -7.598045 5.938055 -20.797702 -11.288517 0.304743 -3.348210 0.145899 0.388881 0.000000 0.000000 0.000000 5.182740 26.107742 -0.749385 3.706245 4.451289 -0.952121 0.584598 3.075157 0.502721 0.414845 0.832879 0.019663 0.000000 0.000000 0.000000 1.676079 2.671945 0.846350 -3.885412 8.598897 -6.294502 -4.596650 6.165724 10.432359 0.000000 0.000000 0.000000 0.486479 2.938068 0.876732 -0.024902 -2.619659 -3.302671 2.734392 -0.964145 -0.009263 -74.749167 0.288721 -26.706699 1.894560 -67.688145 3.470290 0.000000 0.000000 0.000000 1.289008 2.908887 0.866662 4.201866 12.031509 7.954550 -5.281422 -0.333271 0.314860 14.020988 -5.936856 67.292929 17.360685 41.999434 -7.354551 0.000000 0.000000 0.000000 
-8.271507 109.275429 0.290684 0.000000 0.000000 0.000000 4.556239 23.586132 0.132326 -30.281364 -17.014691 3.954829 29.162753 16.387193 -6.689226 2.096818 0.304413 -6.704008 1.755747 -1.287589 -0.484297 0.000000 0.000000 0.000000 5.682118 21.961220 -0.114914 -1.868521 -19.468083 -9.163675 26.021639 -7.164591 5.785869 -19.952775 -11.054837 0.308694 -3.444614 0.137538 0.329670 0.000000 0.000000 0.000000 5.764374 23.154790 -0.991916 3.688179 4.224000 -1.088337 0.745585 2.933173 0.493454 0.410121 1.020790 -0.020853 0.000000 0.000000 0.000000 1.779697 2.524529 0.822074 -4.953453 5.259833 -5.837628 -2.956864 3.073803 10.656768 0.000000 0.000000 0.000000 0.553478 2.806471 0.847711 -0.002484 -3.285111 -3.313323 2.657705 -0.905499 0.083904 -75.025359 0.659960 -28.116580 2.729100 -70.078328 3.915155 0.000000 0.000000 0.000000 1.437440 2.766134 0.826975 4.157079 11.779299 7.715981 -5.229562 -0.205514 0.262849 13.493435 -5.602237 67.306672 17.841789 43.374023 -7.761443 0.000000 0.000000 0.000000 
-8.143376 109.462227 -0.061649 0.000000 0.000000 0.000000 5.164335 20.337573 -0.136389 -29.765838 -16.576787 5.454706 28.867200 17.528304 -6.642546 1.996194 0.896757 -7.194955 1.900205 -1.265646 -0.610302 0.000000 0.000000 0.000000 6.339330 18.720483 -0.337580 -3.206143 -17.754687 -8.891715 25.841377 -6.613320 5.626141 -19.114464 -10.731585 0.331081 -3.568556 0.120741 0.302132 0.000000 0.000000 0.000000 6.350782 19.902046 -1.206739 3.649178 3.986638 -1.193050 0.921742 2.772801 0.486651 0.411245 1.299095 -0.004121 0.000000 0.000000 0.000000 1.892822 2.366871 0.805219 -6.321585 1.840919 -5.419334 -1.285955 -0.029955 10.729128 0.000000 0.000000 0.000000 0.634921 2.683043 0.824043 0.039314 -3.995958 -3.224844 2.577288 -1.010796 0.135582 -75.131828 0.812017 -29.794122 3.860583 -72.237925 4.651493 0.000000 0.000000 0.000000 1.618227 2.626130 0.781033 4.092692 11.478762 7.461913 -5.091843 -0.042486 0.188371 13.040116 -5.109269 67.209075 18.354856 44.758732 -8.171725 0.000000 0.000000 0.000000 
-7.979853 109.643173 -0.445515 0.000000 0.000000 0.000000 5.752006 16.822631 -0.389333 -29.285488 -16.187181 7.018415 28.664299 18.729796 -6.579581 1.917291 1.552352 -7.772976 2.002673 -1.229802 -0.745705 0.000000 0.000000 0.000000 6.937914 15.193143 -0.533983 -4.584447 -15.994843 -8.547616 25.618832 -5.937619 5.459256 -18.327172 -10.299667 0.328713 -3.645824 0.097418 0.307545 0.000000 0.000000 0.000000 6.889200 16.334869 -1.383255 3.605385 3.733833 -1.260369 1.101983 2.594518 0.491977 0.427118 1.562030 0.037960 0.000000 0.000000 0.000000 1.995397 2.198181 0.802485 -7.924271 -1.703465 -4.940542 0.431487 -3.250949 10.704316 0.000000 0.000000 0.000000 0.735996 2.551192 0.805693 0.101327 -4.726383 -3.046364 2.433591 -1.223747 0.147861 -75.100894 0.687210 -31.621764 5.129046 -73.699736 5.533456 0.000000 0.000000 0.000000 1.821725 2.485162 0.743671 4.011372 11.187830 7.226276 -4.870931 0.166293 0.044390 12.669410 -4.473097 66.932097 18.827425 45.971920 -8.505619 0.000000 0.000000 0.000000 
-7.779043 109.817696 -0.852528 0.000000 0.000000 0.000000 6.285533 12.978687 -0.603994 -28.782752 -15.721770 8.649199 28.562456 19.926276 -6.503596 1.797670 2.227647 -8.388412 2.105551 -1.186689 -0.881462 0.000000 0.000000 0.000000 7.454692 11.348922 -0.687544 -5.975377 -14.217748 -8.147593 25.354943 -5.119500 5.284148 -17.569664 -9.741866 0.317295 -3.648184 0.071039 0.330367 0.000000 0.000000 0.000000 7.361261 12.415940 -1.509808 3.575957 3.455185 -1.289796 1.269674 2.395034 0.515244 0.475278 1.809381 0.052773 0.000000 0.000000 0.000000 2.071404 2.015920 0.824214 -9.656618 -5.404061 -4.332962 2.198512 -6.650567 10.627623 0.000000 0.000000 0.000000 0.840775 2.400864 0.793638 0.177893 -5.463654 -2.829649 2.234239 -1.472034 0.220115 -74.988872 0.332453 -33.410123 6.206330 -74.178839 6.251036 0.000000 0.000000 0.000000 2.027405 2.340193 0.727814 3.922686 10.946907 7.034246 -4.630153 0.424252 -0.144722 12.351893 -3.772750 66.401364 19.161081 46.837787 -8.675151 0.000000 0.000000 0.000000 
